<?xml version="1.0" encoding="UTF-8" standalone="no"?>
<svg
   xmlns:dc="http://purl.org/dc/elements/1.1/"
   xmlns:cc="http://creativecommons.org/ns#"
   xmlns:rdf="http://www.w3.org/1999/02/22-rdf-syntax-ns#"
   xmlns:svg="http://www.w3.org/2000/svg"
   xmlns="http://www.w3.org/2000/svg"
   height="30"
   width="108"
   xml:space="preserve"
   viewBox="0 0 108 30"
   y="0px"
   x="0px"
   id="Layer_1"
   version="1.1"><metadata
   id="metadata1030"><rdf:RDF><cc:Work
       rdf:about=""><dc:format>image/svg+xml</dc:format><dc:type
         rdf:resource="http://purl.org/dc/dcmitype/StillImage" /><dc:title></dc:title></cc:Work></rdf:RDF></metadata><defs
   id="defs1028" />
<style
   id="style991"
   type="text/css">
	.st0{fill:#FFFFFF;}
	.st1{fill:#66CC00;}
</style>
<g
   transform="matrix(0.31777582,0,0,0.31777582,-182.1618,-179.98351)"
   id="g1023">
	<path
   style="fill:#ffffff"
   id="path993"
   d="m 865.85,593.73 c 0.33,0.01 0.66,0.15 0.99,0.24 0.02,0.13 0.03,0.27 0.05,0.4 -0.96,0.81 -2.02,1.36 -3.36,1.42 -0.98,0.05 -1.97,0.15 -2.94,0.36 -1.73,0.37 -3.32,-0.1 -4.88,-0.74 -0.7,-0.28 -0.73,-1.08 -0.04,-1.48 0.46,-0.27 1.05,-0.42 1.58,-0.42 2.87,0.03 5.73,0.12 8.6,0.22 z"
   class="st0" />
	<path
   style="fill:#ffffff"
   id="path995"
   d="m 839.28,659.52 c -1.97,-1.84 -3.93,-3.69 -6.05,-5.67 1.43,-1.72 2.87,-3.45 4.41,-5.28 1.59,1.41 3.02,2.67 4.54,4.01 1.28,-1.47 2.57,-2.95 4.04,-4.64 1.96,1.9 3.79,3.65 5.59,5.45 0.15,0.15 0.19,0.64 0.06,0.81 -1.22,1.6 -2.49,3.17 -3.82,4.84 -1.66,-1.49 -3.1,-2.78 -4.56,-4.08 -1.38,1.58 -2.68,3.07 -3.98,4.56 -0.07,0 -0.15,0 -0.23,0 z"
   class="st0" />
	<path
   style="fill:#ffffff"
   id="path997"
   d="m 780.72,659.52 c -1.93,-1.83 -3.86,-3.66 -5.96,-5.66 1.38,-1.67 2.8,-3.41 4.36,-5.29 1.59,1.4 3.04,2.68 4.57,4.02 1.27,-1.47 2.53,-2.93 3.97,-4.59 1.49,1.37 2.95,2.59 4.27,3.94 2.21,2.24 2.07,1.41 0.24,3.94 -0.78,1.08 -1.76,2.02 -2.7,3.09 -1.6,-1.43 -3.04,-2.72 -4.46,-3.99 -1.41,1.58 -2.73,3.06 -4.05,4.54 -0.08,0 -0.16,0 -0.24,0 z"
   class="st0" />
	<path
   style="fill:#ffffff"
   id="path999"
   d="m 787.91,623.62 c 0.86,0.5 0.99,1.18 0.73,2.13 -0.34,1.27 -0.63,2.57 -0.73,3.88 -0.17,2.2 0.53,3.49 2.6,4.22 3.44,1.21 6.95,1.18 10.22,-0.58 0.84,-0.45 1.35,-1.57 1.91,-2.45 0.27,-0.42 0.38,-0.99 0.41,-1.49 0.18,-3.03 2.36,-4.41 4.63,-5.71 0.89,0.51 1.01,1.19 0.75,2.14 -0.34,1.23 -0.6,2.49 -0.73,3.76 -0.22,2.2 0.53,3.6 2.61,4.33 3.4,1.2 6.83,1.11 10.14,-0.47 1.06,-0.51 1.75,-1.37 2.01,-2.55 0.06,-0.27 0.18,-0.54 0.21,-0.81 0.32,-3.06 1.95,-5.13 4.9,-6.34 0.67,0.39 0.98,0.98 0.69,1.97 -0.35,1.18 -0.6,2.41 -0.75,3.64 -0.29,2.45 0.55,4.13 2.94,4.68 4.65,1.08 9.34,0.99 13.93,-0.58 1.06,-0.36 1.33,-1.1 0.91,-2.07 -1.23,-2.86 -2.47,-5.72 -3.78,-8.55 -0.36,-0.77 -0.45,-1.37 0.05,-2.09 0.97,-1.37 1.84,-2.81 2.83,-4.17 0.54,-0.74 1.35,-0.73 1.75,0.01 2.31,4.29 4.32,8.69 4.39,13.68 0.05,3.22 -1.18,6.03 -3.18,8.48 -1.31,1.6 -3.21,2.33 -5.18,2.5 -3.42,0.3 -6.86,0.5 -10.29,0.45 -3,-0.04 -5.73,-1.03 -7.6,-3.58 -6.53,5.12 -13.88,5.11 -19.89,0.06 -6.34,5.05 -13.64,5.05 -19.87,-0.05 -2.85,3.34 -6.72,3.69 -10.78,3.68 -46.4,-0.03 -92.8,-0.02 -139.19,-0.02 -1.16,0 -2.32,-0.05 -3.47,-0.15 -2.83,-0.26 -5.41,-1.09 -7.36,-3.52 -1.84,1.77 -3.84,3.21 -6.39,3.56 -2.6,0.36 -4.88,-0.12 -6.3,-2.71 -0.29,0.21 -0.52,0.35 -0.71,0.53 -1.5,1.38 -3.29,2.14 -5.31,2.24 -0.94,0.04 -1.28,0.41 -1.34,1.26 -0.03,0.4 -0.14,0.79 -0.22,1.18 -1.5,7.23 -6.62,12.05 -14,12.95 -1.96,0.24 -4.02,0.25 -5.95,-0.11 -5.67,-1.06 -9.26,-5.09 -10.01,-11.09 -0.66,-5.24 0.33,-10.19 2.94,-14.8 0.23,-0.41 0.51,-0.79 0.82,-1.28 0.95,0.49 1.82,0.94 2.69,1.39 -0.57,1.64 -1.26,3.14 -1.62,4.72 -0.36,1.62 -0.64,3.33 -0.53,4.97 0.37,5.58 4.74,9.17 10.53,8.75 3.77,-0.27 7.02,-1.77 9.66,-4.51 1.65,-1.71 2.29,-3.68 1.69,-6.05 -0.79,-3.14 -2.17,-6.01 -3.9,-8.72 -0.4,-0.62 -0.45,-1.11 -0.04,-1.74 0.85,-1.3 1.63,-2.66 2.48,-3.97 0.62,-0.95 1.41,-0.92 1.87,0.1 1.14,2.55 2.26,5.12 3.3,7.71 0.88,2.18 1.97,2.67 4.09,1.65 1.43,-0.68 2.46,-1.76 3.11,-3.2 0.16,-0.36 0.35,-0.74 0.42,-1.12 0.38,-2.28 1.7,-3.68 3.92,-4.25 0.38,-0.1 1.06,-0.24 1.14,-0.09 0.24,0.42 0.4,1 0.33,1.47 -0.15,0.94 -0.5,1.85 -0.71,2.79 -0.16,0.7 -0.29,1.41 -0.35,2.13 -0.2,2.25 1.1,3.25 3.29,2.59 1.34,-0.41 2.2,-1.37 2.66,-2.59 0.59,-1.56 0.93,-3.22 1.5,-4.8 0.22,-0.61 0.68,-1.21 1.18,-1.62 0.67,-0.55 1.48,-0.95 2.26,-1.35 0.31,-0.16 0.93,-0.31 1.02,-0.19 0.27,0.38 0.52,0.91 0.46,1.34 -0.2,1.38 -0.61,2.73 -0.81,4.12 -0.43,3 0.61,4.43 3.6,4.97 0.94,0.17 1.91,0.26 2.86,0.26 47.48,0.01 94.96,0.01 142.43,-0.01 1.03,0 2.08,-0.15 3.08,-0.37 2.29,-0.52 3.94,-1.74 4.27,-4.25 0.03,-0.2 0.13,-0.39 0.14,-0.58 0.18,-3.01 2.3,-4.44 4.64,-5.71 z"
   class="st0" />
	<path
   style="fill:#66cc00"
   id="path1001"
   d="m 628.1,607.22 c 0.09,-0.99 0.24,-1.98 0.26,-2.97 0.01,-0.48 -0.06,-1.2 -0.36,-1.39 -0.37,-0.23 -1.08,-0.18 -1.53,0.01 -5.62,2.48 -11.21,2.09 -16.78,-0.14 -4.17,-1.67 -5.77,-5.01 -6,-9.26 -0.23,-4.18 1.44,-7.65 3.73,-11 3.52,-5.15 8.38,-8.88 13.06,-12.79 2.51,-2.09 5.37,-2.55 8.33,-0.8 0.54,0.32 1.13,0.68 1.48,1.18 1.52,2.17 2.25,4.57 1.79,7.24 -0.14,0.84 -0.47,1.57 -1.41,1.72 -1.02,0.16 -1.93,-0.1 -2.46,-1.07 -0.34,-0.63 -0.59,-1.31 -0.91,-1.95 -0.78,-1.5 -1.64,-1.95 -3.11,-1.14 -1.91,1.06 -3.83,2.23 -5.41,3.7 -3.22,2.99 -6.29,6.17 -8.51,10.02 -0.69,1.2 -1.24,2.51 -1.72,3.82 -0.59,1.62 0,2.99 1.49,3.86 0.14,0.08 0.28,0.16 0.43,0.21 4.65,1.56 9.34,2.82 14.23,1.19 1.16,-0.39 2.24,-1.02 3.32,-1.6 0.34,-0.18 0.69,-0.5 0.82,-0.84 0.17,-0.45 0.28,-1.05 0.1,-1.45 -0.11,-0.25 -0.82,-0.4 -1.21,-0.33 -2.32,0.4 -4.63,0.89 -6.95,1.32 -0.82,0.15 -1.66,0.29 -2.49,0.35 -1.89,0.14 -3.08,-0.87 -3.3,-2.79 -0.07,-0.63 -0.03,-1.28 -0.02,-1.92 0.04,-1.53 0.7,-2.64 2.25,-2.99 3.38,-0.76 6.78,-1.49 10.17,-2.19 1.48,-0.31 3.01,-0.42 4.48,-0.78 4.26,-1.06 5.93,0.99 6.58,5.36 0.21,1.44 -0.29,3.11 -0.87,4.51 -1.68,4.1 -2.32,8.37 -2.4,12.75 -0.01,0.56 0.01,1.12 0,1.68 -0.05,2.63 -2.1,3.85 -4.64,3.13 -2.66,-0.73 -2.34,-2.69 -2.44,-4.65 z"
   class="st1" />
	<path
   style="fill:#ffffff"
   id="path1003"
   d="m 890.11,633.64 c -0.34,-0.2 -0.75,-0.34 -1.02,-0.61 -3.28,-3.21 -4.13,-7.5 -2.23,-11.67 1.7,-3.74 4.16,-6.8 8.34,-7.86 3.98,-1.01 7.34,0.32 10.08,3.26 0.89,0.96 1.55,2.13 2.33,3.19 0.65,0.88 0.67,1.64 -0.29,2.33 -0.25,0.18 -0.38,0.51 -0.58,0.8 -0.43,-0.31 -0.69,-0.48 -0.94,-0.67 -3.7,-2.93 -7.77,-3.11 -12,-1.49 -2.66,1.02 -3.01,2.39 -1.49,4.82 2.33,3.73 6.44,5.56 10.69,4.54 2.87,-0.69 5.67,-1.67 8.52,-2.47 0.43,-0.12 1.18,-0.11 1.35,0.14 0.24,0.35 0.22,1.03 0.06,1.48 -0.54,1.46 -1.14,2.91 -1.84,4.3 -0.25,0.5 -0.79,1.04 -1.3,1.21 -2.89,0.93 -5.81,1.76 -8.73,2.61 -3.99,1.17 -7.96,2.4 -11.98,3.46 -3.64,0.95 -7.34,1.1 -11.08,0.18 -0.05,0.14 -0.14,0.28 -0.15,0.42 -0.31,5.28 -3.02,9.35 -6.66,12.91 -2.52,2.46 -5.52,3.37 -9.03,2.62 -3.24,-0.69 -6.24,-1.93 -9.28,-3.59 0.41,-0.94 0.8,-1.84 1.22,-2.81 0.41,0.16 0.73,0.29 1.06,0.41 2.53,0.93 5.1,1.13 7.62,0.11 4.83,-1.96 8.26,-5.35 10.2,-10.23 0.4,-1 0.22,-1.78 -0.35,-2.67 -1.37,-2.11 -2.66,-4.28 -3.87,-6.48 -0.26,-0.46 -0.25,-1.25 -0.05,-1.76 0.57,-1.45 1.26,-2.86 2,-4.22 0.2,-0.37 0.74,-0.69 1.17,-0.76 0.23,-0.04 0.64,0.45 0.83,0.78 1.07,1.91 1.98,3.93 3.19,5.75 1.35,2.03 3.43,2.94 5.89,2.87 2.24,-0.06 4.47,-0.14 6.71,-0.24 0.46,-0.02 0.91,-0.16 1.36,-0.25 0.06,-0.14 0.16,-0.28 0.25,-0.41 z"
   class="st0" />
	<path
   style="fill:#66cc00"
   id="path1005"
   d="m 790.7,599.94 c 0,2.61 -1.16,3.96 -3.58,5.08 -3.54,1.64 -7.03,1.35 -10.45,-0.01 -4.93,-1.95 -6.69,-6.19 -6.33,-10.96 0.29,-3.9 1.83,-7.4 3.56,-10.85 1.49,-2.99 3.37,-5.8 4.19,-9.12 0.4,-1.63 1.85,-2.19 3.35,-2.55 4.27,-1.03 8.53,-2.07 12.8,-3.11 0.81,-0.2 1.62,-0.45 2.43,-0.64 1.77,-0.4 2.94,0.16 3.58,1.85 0.53,1.4 1.01,2.84 1.35,4.3 0.34,1.48 -0.22,2.43 -1.73,2.78 -2.99,0.7 -6.03,1.18 -9.03,1.86 -2.49,0.57 -4.96,1.22 -7.4,1.97 -1.65,0.5 -2.1,2.08 -2.61,3.51 -0.08,0.22 0.27,0.79 0.52,0.88 0.59,0.2 1.26,0.34 1.87,0.25 3.07,-0.45 6.21,-0.63 8.98,-2.29 0.32,-0.19 1.16,-0.03 1.42,0.26 1.45,1.59 1.96,3.57 1.77,5.66 -0.14,1.58 -1.2,2.42 -3.06,2.71 -2.25,0.35 -4.5,0.66 -6.76,0.97 -2.01,0.27 -4.03,0.54 -6.05,0.76 -1.63,0.18 -2.81,0.83 -2.92,1.69 -0.11,0.83 1.23,2.1 2.6,2.52 1.41,0.44 2.76,0.2 4.1,-0.31 1.42,-0.54 2.85,-1.04 4.25,-1.62 0.87,-0.36 1.55,-0.14 1.92,0.63 0.58,1.19 1.03,2.44 1.53,3.67 -0.09,0.02 -0.19,0.07 -0.3,0.11 z"
   class="st1" />
	<path
   style="fill:#66cc00"
   id="path1007"
   d="m 700.76,583.49 c 0.85,0.11 1.59,0.38 2.23,0.24 1.98,-0.44 3.96,-0.92 5.85,-1.63 1.59,-0.6 3.02,-0.46 3.77,1.06 0.67,1.38 1.1,2.89 1.46,4.39 0.22,0.93 -0.27,1.75 -1.19,2.13 -1.18,0.48 -2.37,1.02 -3.61,1.28 -3.23,0.67 -6.49,1.2 -9.74,1.79 -0.59,0.11 -1.24,0.12 -1.74,0.39 -0.44,0.24 -0.92,0.75 -0.99,1.2 -0.05,0.34 0.44,0.97 0.83,1.13 2.96,1.26 5.93,1.32 8.68,-0.5 0.89,-0.59 1.38,-0.52 1.99,0.22 1.74,2.11 2.24,4.48 1.44,7.07 -0.39,1.27 -1.35,2.02 -2.62,2.42 -4.12,1.28 -8.06,0.55 -11.92,-1.01 -0.4,-0.16 -0.84,-0.4 -1.08,-0.73 -2.25,-3.19 -4.36,-6.38 -3.46,-10.67 0.86,-4.12 1.83,-8.16 3.68,-11.99 0.66,-1.37 0.62,-3.11 0.77,-4.69 0.13,-1.37 0.78,-2.14 2.07,-2.61 4.93,-1.82 10.12,-2.52 15.23,-3.53 1.88,-0.37 3.57,0.22 4.46,2.2 0.59,1.32 1.65,2.45 1.2,4.13 -0.24,0.89 -0.67,1.26 -1.54,1.36 -3.09,0.37 -6.18,0.77 -9.27,1.2 -0.71,0.1 -1.39,0.4 -2.1,0.51 -2.51,0.39 -3.47,2.27 -4.4,4.64 z"
   class="st1" />
	<path
   style="fill:#66cc00"
   id="path1009"
   d="m 678.55,605.44 c -3.38,0.06 -6.28,-1.45 -9.08,-3.04 -1.61,-0.92 -2.13,-2.84 -2.67,-4.56 -0.91,-2.9 -0.47,-5.77 0.35,-8.61 0.34,-1.19 0.73,-2.37 1.19,-3.52 0.19,-0.48 0.57,-0.91 0.95,-1.27 0.66,-0.61 0.74,-1.87 -0.02,-2.15 -2.33,-0.84 -2.37,-2.86 -2.4,-4.74 -0.04,-2.42 1,-3.45 3.36,-4.1 3.76,-1.03 7.49,-2.17 11.26,-3.19 1.69,-0.46 3.43,-0.76 5.16,-1.07 1.85,-0.33 3.1,0.34 3.87,2.06 0.49,1.09 0.96,2.2 1.35,3.33 0.61,1.74 0.05,2.66 -1.74,3.05 -3.28,0.71 -6.56,1.37 -9.82,2.15 -1.15,0.28 -2.28,0.75 -3.35,1.28 -0.49,0.24 -0.98,0.75 -1.17,1.25 -0.2,0.53 -0.23,1.29 0.02,1.77 0.14,0.27 1.01,0.33 1.5,0.23 1.95,-0.4 3.88,-0.92 5.83,-1.35 2.32,-0.5 3.51,0.01 4.38,2.22 0.53,1.34 0.76,2.83 0.94,4.27 0.05,0.4 -0.5,1.17 -0.9,1.28 -1.41,0.38 -2.88,0.56 -4.34,0.79 -2.99,0.49 -5.98,0.95 -8.96,1.45 -0.81,0.13 -1.42,0.71 -1.24,1.48 0.12,0.51 0.77,0.96 1.27,1.32 2.13,1.55 4.31,1.24 6.53,0.15 0.82,-0.4 1.59,-0.17 2.1,0.6 0.5,0.76 1.07,1.52 1.38,2.37 1.2,3.29 -0.68,6.19 -4.17,6.52 -0.53,0.07 -1.06,0.03 -1.58,0.03 z"
   class="st1" />
	<path
   style="fill:#ffffff"
   id="path1011"
   d="m 803.77,648 c 2.05,1.88 3.92,3.55 5.73,5.29 0.23,0.22 0.29,0.95 0.1,1.19 -1.24,1.65 -2.57,3.23 -3.94,4.92 -2.26,-1.97 -4.3,-3.73 -6.47,-5.62 1.49,-1.87 2.94,-3.71 4.58,-5.78 z"
   class="st0" />
	<path
   style="fill:#ffffff"
   id="path1013"
   d="m 823.13,607.58 c 2.07,1.9 4.01,3.66 5.9,5.47 0.16,0.15 0.15,0.72 -0.01,0.93 -1.28,1.66 -2.61,3.28 -4,5.01 -2.29,-1.98 -4.32,-3.74 -6.48,-5.62 1.5,-1.89 2.94,-3.72 4.59,-5.79 z"
   class="st0" />
	<path
   style="fill:#ffffff"
   id="path1015"
   d="m 892.91,598.84 c 2.07,1.9 3.96,3.61 5.8,5.36 0.19,0.18 0.29,0.71 0.16,0.92 -1.12,1.9 -2.49,3.59 -4.31,4.93 -2.07,-1.8 -4.08,-3.55 -6.23,-5.41 1.48,-1.88 2.92,-3.71 4.58,-5.8 z"
   class="st0" />
	<path
   style="fill:#66cc00"
   id="path1017"
   d="m 884.38,570.43 c -1.08,-1.42 -2.5,-1.97 -4.33,-1.58 -3.46,0.73 -6.82,1.87 -10.4,2.14 -3.77,0.29 -7.5,1.06 -11.26,1.52 -4.18,0.51 -5.97,2.46 -6.07,6.71 -0.01,0.66 -0.2,1.34 -0.45,1.96 -1.57,3.88 -3.43,7.67 -3.44,12.01 0,0.41 -0.34,0.88 -0.65,1.18 -0.09,0.09 -0.72,-0.23 -0.97,-0.49 -0.75,-0.75 -1.45,-0.8 -2.32,-0.17 -0.67,0.49 -1.41,0.97 -2.19,1.22 -1.12,0.36 -2.34,0.79 -3.47,0.69 -3.29,-0.29 -6.26,-1.56 -8.92,-3.53 -2.67,-1.98 -3,-3.53 -1.37,-6.44 0.16,-0.28 0.31,-0.56 0.5,-0.82 2.26,-3.12 4.93,-5.69 8.93,-6.36 1.57,-0.26 2.19,0.47 1.73,2 -0.06,0.19 -0.15,0.37 -0.2,0.56 -0.59,1.99 0.09,3.88 1.65,4.63 2.61,1.25 4.07,0.97 5.55,-1.08 2.07,-2.86 1.75,-8.34 -0.61,-11.13 -0.96,-1.14 -2.08,-1.68 -3.62,-1.75 -3.99,-0.18 -7.71,0.75 -11.21,2.55 -3.71,1.91 -7.04,4.29 -8.94,8.21 -0.19,0.39 -0.43,0.79 -0.75,1.07 -0.31,0.26 -0.75,0.36 -1.13,0.54 -0.14,-0.35 -0.37,-0.69 -0.42,-1.06 -0.21,-1.42 -0.29,-2.86 -0.54,-4.27 -0.57,-3.26 -1.54,-6.38 -3.83,-8.91 -1.62,-1.78 -3.03,-1.99 -4.7,-0.26 -1.71,1.76 -3.27,3.72 -4.6,5.78 -1.36,2.11 -2.33,4.46 -3.53,6.68 -0.68,1.26 -1.29,2.63 -2.25,3.65 -0.92,0.98 -1.49,2.02 -1.89,3.25 -0.93,2.85 -1.8,5.7 -3.66,8.16 -0.97,1.28 -0.91,2.85 -0.5,4.38 0.36,1.35 2.09,2.93 3.53,2.94 1.28,0.01 1.7,-1.18 2.26,-2.07 0.4,-0.64 0.67,-1.36 1,-2.04 0.58,-1.19 1.13,-2.38 1.75,-3.55 0.2,-0.37 0.51,-0.8 0.87,-0.94 2.52,-0.99 5.14,-1.43 7.86,-1.24 1.01,0.07 1.44,0.63 1.45,1.67 0.01,1.52 0.1,3.04 0.25,4.54 0.14,1.5 0.58,2.9 1.86,3.88 1.4,1.07 3.24,0.66 3.99,-0.91 0.78,-1.62 0.71,-3.32 0.56,-5.05 -0.1,-1.19 -0.19,-2.4 -0.08,-3.59 0.07,-0.68 0.54,-1.33 0.83,-1.99 0.5,0.42 1,0.83 1.48,1.25 0.12,0.1 0.2,0.25 0.3,0.37 4.26,5.83 10.16,9.02 17.11,10.36 3.56,0.69 5.55,-0.42 7.29,-3.61 0.33,-0.6 0.63,-1.21 0.98,-1.79 0.73,-1.22 1.11,-1.21 1.97,-0.04 2.87,3.88 7.01,4.65 11.42,4.44 1.85,-0.09 3.68,-0.71 5.5,-1.15 3.54,-0.84 4.8,-5.14 2.28,-7.77 -0.63,-0.65 -0.62,-1.06 0.25,-1.39 0.41,-0.15 0.82,-0.33 1.23,-0.46 1.13,-0.38 1.74,-1.15 2.01,-2.31 0.68,-2.89 -0.29,-5.19 -2.43,-7.06 -0.33,-0.29 -0.93,-0.46 -1.37,-0.41 -2.17,0.24 -4.33,0.58 -6.5,0.88 -0.01,-0.08 -0.02,-0.16 -0.03,-0.23 -0.8,0 -1.6,-0.03 -2.4,0.01 -0.9,0.04 -1.2,-0.45 -1.21,-1.25 -0.03,-1.6 0.96,-2.87 2.94,-3.27 2.81,-0.57 5.66,-1.05 8.52,-1.34 3.02,-0.31 6.07,-0.22 9.08,-0.55 1.87,-0.21 3.68,-0.61 5.53,0.11 0.79,0.31 1.09,-0.25 1.21,-0.91 0.46,-2.39 0.05,-4.62 -1.43,-6.57 z m -70.68,11.21 c 0,0.12 0,0.24 0,0.36 -0.12,3.25 -0.56,3.55 -4.08,3.44 -0.59,-0.02 -0.98,-0.32 -0.71,-0.91 0.91,-2.03 1.84,-4.05 2.86,-6.02 0.33,-0.63 1.37,-0.32 1.63,0.54 0.25,0.82 0.28,1.71 0.41,2.57 -0.04,0.01 -0.08,0.02 -0.11,0.02 z m 52.15,12.09 c 0.33,0.01 0.66,0.15 0.99,0.24 0.02,0.13 0.03,0.27 0.05,0.4 -0.96,0.81 -2.02,1.36 -3.36,1.42 -0.98,0.05 -1.97,0.15 -2.94,0.36 -1.73,0.37 -3.32,-0.1 -4.88,-0.74 -0.7,-0.28 -0.73,-1.08 -0.04,-1.48 0.46,-0.27 1.05,-0.42 1.58,-0.42 2.87,0.03 5.73,0.12 8.6,0.22 z"
   class="st1" />
	<path
   style="fill:#66cc00"
   id="path1019"
   d="m 773.16,574.8 c -1.24,-3.35 -3.31,-5.62 -7.09,-5.86 -1.59,-0.1 -3.19,-0.21 -4.78,-0.28 -2.14,-0.09 -4.28,-0.16 -6.42,-0.22 -0.24,-0.01 -0.55,-0.05 -0.7,0.08 -1.41,1.17 -3.02,1.11 -4.68,0.87 -0.15,-0.02 -0.32,0 -0.48,0.04 -2.15,0.61 -4.36,1.08 -6.05,2.72 -0.56,0.55 -0.85,0.56 -1.28,-0.28 -0.47,-0.91 -1.21,-1.81 -2.06,-2.37 -1.64,-1.07 -3.06,-0.3 -3.18,1.64 -0.23,3.46 -0.36,6.94 -0.58,10.4 -0.1,1.55 -0.29,3.1 -0.51,4.64 -0.15,1.02 -0.58,1.14 -1.35,0.46 -0.27,-0.24 -0.5,-0.52 -0.71,-0.81 -1.26,-1.7 -2.61,-3.35 -3.72,-5.15 -0.69,-1.12 -1.19,-2.44 -1.46,-3.74 -0.29,-1.35 -0.2,-2.78 -0.3,-4.17 -0.19,-2.73 -0.77,-3.43 -3.39,-4.12 -2.36,-0.62 -4.55,0.98 -4.57,3.47 -0.01,2.02 0.35,4.06 0.22,6.07 -0.25,3.82 -0.63,7.63 -1.16,11.42 -0.41,2.96 -1.13,5.87 -1.71,8.8 0.08,0.01 0.16,0.03 0.24,0.04 0,0.56 -0.04,1.12 0.01,1.68 0.2,2.12 1.89,3.62 4.03,3.68 1.08,0.03 1.8,-0.44 2.08,-1.43 0.3,-1.07 0.44,-2.18 0.67,-3.27 0.58,-2.77 1.15,-5.54 1.8,-8.3 0.11,-0.48 0.61,-0.87 0.93,-1.3 0.44,0.37 0.92,0.69 1.3,1.11 0.26,0.28 0.38,0.7 0.58,1.04 0.78,1.35 1.43,2.8 2.39,4.01 1.45,1.83 2.09,3.91 2.58,6.11 0.21,0.92 0.58,1.83 1.02,2.67 0.89,1.71 2.52,1.56 4.1,1.47 1.31,-0.08 2.11,-0.93 2.33,-2.08 0.34,-1.7 0.53,-3.46 0.57,-5.19 0.03,-1.45 -0.39,-2.92 -0.35,-4.37 0.07,-2.59 0.46,-5.17 0.48,-7.76 0.02,-2.53 0.48,-5.09 -0.26,-7.62 -0.29,-0.98 0.61,-1.73 1.35,-1.23 1.79,1.22 3.38,0.58 5.09,-0.16 1.05,-0.45 2.19,-0.7 3.31,-0.94 0.76,-0.16 1.41,0.17 1.4,1.05 -0.01,1.11 -0.14,2.23 -0.26,3.34 -0.09,0.81 -0.59,1.21 -1.38,1.45 -0.66,0.19 -1.39,0.48 -1.86,0.96 -1.95,1.95 -1.88,5.13 0.07,7.07 0.43,0.42 0.83,0.88 1.3,1.24 0.88,0.68 1.18,1.58 1.12,2.63 -0.05,0.96 -0.16,1.91 -0.24,2.86 -0.2,2.18 -0.68,4.36 0.24,6.5 0.65,1.51 2.43,2.52 3.98,2.25 1.2,-0.21 1.92,-1.33 2.03,-3.16 0.02,-0.4 -0.01,-0.8 0.02,-1.2 0.22,-2.86 0.45,-5.72 0.68,-8.58 0.16,-1.89 0.91,-3.23 3,-3.57 1.01,-0.16 1.98,-0.63 2.96,-0.97 2.58,-0.89 4.78,-2.32 6.71,-4.27 2.74,-2.76 3.25,-5.83 1.94,-9.37 z m -7.42,4.1 c -1.56,1.11 -3.37,1.89 -5.14,2.65 -0.77,0.33 -1.49,-0.13 -1.69,-1.05 -0.26,-1.2 -0.48,-2.41 -0.72,-3.62 -0.03,-0.87 0.44,-1.4 1.21,-1.34 1.9,0.13 3.81,0.26 5.67,0.65 1.72,0.36 2.08,1.71 0.67,2.71 z"
   class="st1" />
	<path
   style="fill:#66cc00"
   id="path1021"
   d="m 663.16,595.42 c -1.12,-0.76 -2.31,-1.43 -3.44,-2.18 -2.72,-1.8 -2.69,-1.97 -0.94,-4.64 3.9,-5.91 3.66,-11.27 -0.49,-16.88 -1.43,-1.93 -3.27,-3.47 -5.86,-3.53 -1.51,-0.04 -3.04,0.03 -4.53,0.26 -4.58,0.7 -6.45,5.57 -3.63,9.24 0.3,0.39 0.47,1.05 0.39,1.54 -0.26,1.49 -0.67,2.96 -1.01,4.43 -0.23,1 -0.85,1.5 -1.85,1.8 -0.6,0.18 -1.32,0.73 -1.53,1.28 -0.65,1.76 -0.54,3.5 0.67,5.09 0.37,0.5 0.67,1.22 0.64,1.83 -0.09,1.91 -0.35,3.81 -0.54,5.72 0.03,0 0.06,0 0.1,0.01 0,0.64 -0.05,1.28 0.01,1.92 0.29,2.97 1.91,4.48 4.6,4.43 1.19,-0.03 1.7,-0.63 1.69,-1.7 -0.01,-1.6 -0.13,-3.19 -0.15,-4.79 -0.01,-1.03 -0.05,-2.09 0.16,-3.08 0.33,-1.52 0.99,-1.66 2.29,-0.78 3.17,2.13 6.03,4.6 8.43,7.59 0.98,1.21 2.68,1.71 3.99,1.01 0.82,-0.44 1.45,-1.32 2.04,-2.1 1.82,-2.4 1.41,-4.81 -1.04,-6.47 z m -8.17,-14.95 c -0.63,1.85 -1.93,3.09 -3.77,3.76 -0.86,0.31 -1.19,0.03 -1.04,-0.9 0.27,-1.77 0.49,-3.55 0.73,-5.33 -0.03,0 -0.07,-0.01 -0.1,-0.01 0,-0.04 -0.01,-0.08 0,-0.12 0.18,-0.69 0.35,-1.95 0.56,-1.96 0.9,-0.03 1.92,0.11 2.68,0.56 1.19,0.71 1.5,2.36 0.94,4 z"
   class="st1" />
</g>
</svg>