<?xml version="1.0" encoding="UTF-8" standalone="no"?>
<svg
   height="30"
   width="108"
   xml:space="preserve"
   viewBox="0 0 108 30"
   y="0px"
   x="0px"
   id="Layer_1"
   version="1.1"
   xmlns="http://www.w3.org/2000/svg"
   xmlns:svg="http://www.w3.org/2000/svg"
   xmlns:rdf="http://www.w3.org/1999/02/22-rdf-syntax-ns#"
   xmlns:cc="http://creativecommons.org/ns#"
   xmlns:dc="http://purl.org/dc/elements/1.1/"><metadata
   id="metadata1030"><rdf:RDF><cc:Work
       rdf:about=""><dc:format>image/svg+xml</dc:format><dc:type
         rdf:resource="http://purl.org/dc/dcmitype/StillImage" /></cc:Work></rdf:RDF></metadata><defs
   id="defs1028">
	
	
	
	
	
	
	
	
	
	
	
	
	
	
	
</defs>
<style
   id="style991"
   type="text/css">
	.st0{fill:#FFFFFF;}
	.st1{fill:#66CC00;}
</style>
<g
   id="g1006"><path
     style="fill:#000000;stroke-width:0.317776"
     id="path995"
     d="m 84.54109,29.595999 c -0.626018,-0.584708 -1.248859,-1.172593 -1.922544,-1.801789 0.45442,-0.546575 0.912017,-1.096327 1.401392,-1.677856 0.505263,0.448063 0.959683,0.848461 1.442702,1.274281 0.406753,-0.467131 0.816684,-0.937439 1.283814,-1.47448 0.622841,0.603774 1.204371,1.159882 1.776367,1.731878 0.04767,0.04767 0.06038,0.203377 0.01907,0.257398 -0.387687,0.508442 -0.791262,1.00735 -1.213904,1.538035 -0.527508,-0.473486 -0.985105,-0.883416 -1.449058,-1.296525 -0.43853,0.502086 -0.851639,0.975572 -1.264747,1.449058 -0.02224,0 -0.04767,0 -0.07309,0 z"
     class="st0" /><path
     style="fill:#000000;stroke-width:0.317776"
     id="path997"
     d="m 65.932138,29.595999 c -0.613307,-0.58153 -1.226614,-1.16306 -1.893944,-1.798611 0.438531,-0.530686 0.889773,-1.083616 1.385503,-1.681034 0.505263,0.444886 0.966038,0.851639 1.452235,1.277458 0.403576,-0.46713 0.803973,-0.931083 1.26157,-1.458591 0.473486,0.435353 0.937439,0.82304 1.356903,1.252037 0.702285,0.711818 0.657796,0.448064 0.07627,1.252037 -0.247865,0.343198 -0.559285,0.641907 -0.857994,0.981927 -0.508442,-0.454419 -0.966039,-0.86435 -1.417281,-1.267925 -0.448063,0.502085 -0.867528,0.972394 -1.286992,1.442702 -0.02542,0 -0.05084,0 -0.07627,0 z"
     class="st0" /><path
     style="fill:#000000;stroke-width:0.317776"
     id="path999"
     d="m 68.216946,18.187847 c 0.273288,0.158888 0.314598,0.374975 0.231977,0.676862 -0.108044,0.403576 -0.200199,0.816684 -0.231977,1.232971 -0.05402,0.699106 0.168422,1.109037 0.826217,1.341014 1.093149,0.384508 2.208542,0.374975 3.247669,-0.18431 0.266932,-0.143 0.428998,-0.498909 0.606952,-0.778551 0.0858,-0.133466 0.120755,-0.314598 0.130288,-0.473486 0.0572,-0.962861 0.749951,-1.401392 1.471302,-1.8145 0.282821,0.162066 0.320954,0.378153 0.238332,0.68004 -0.108044,0.390864 -0.190665,0.791262 -0.231976,1.194837 -0.06991,0.699107 0.168421,1.143993 0.829395,1.37597 1.080437,0.38133 2.170409,0.352731 3.222247,-0.149355 0.336842,-0.162066 0.556107,-0.435353 0.638729,-0.810328 0.01907,-0.0858 0.0572,-0.171599 0.06673,-0.257399 0.101688,-0.972394 0.619663,-1.63019 1.557101,-2.014699 0.21291,0.123933 0.311421,0.311421 0.219266,0.626019 -0.111222,0.374975 -0.190666,0.76584 -0.238332,1.156704 -0.09216,0.778551 0.174777,1.312414 0.934261,1.487191 1.477657,0.343197 2.968026,0.314598 4.426617,-0.18431 0.336842,-0.1144 0.422642,-0.349554 0.289176,-0.657796 -0.390864,-0.908839 -0.784906,-1.817678 -1.201193,-2.716984 -0.114399,-0.244687 -0.142999,-0.435352 0.01589,-0.664151 0.308243,-0.435353 0.584708,-0.89295 0.899306,-1.325125 0.171599,-0.235154 0.428997,-0.231977 0.556107,0.0032 0.734062,1.363258 1.372792,2.761471 1.395036,4.347173 0.01589,1.023238 -0.374975,1.916188 -1.010527,2.694739 -0.416286,0.508441 -1.02006,0.740417 -1.646079,0.794439 -1.086793,0.09533 -2.179942,0.158888 -3.269913,0.142999 -0.953327,-0.01271 -1.820855,-0.327309 -2.415096,-1.137637 -2.075076,1.627012 -4.410728,1.623834 -6.320561,0.01907 -2.014699,1.604767 -4.334462,1.604767 -6.314206,-0.01589 -0.905661,1.061371 -2.135453,1.172592 -3.425623,1.169415 -14.744798,-0.0095 -29.489596,-0.0064 -44.231216,-0.0064 -0.36862,0 -0.73724,-0.01589 -1.102683,-0.04767 -0.899305,-0.08262 -1.719167,-0.346376 -2.33883,-1.118571 -0.584707,0.562463 -1.220259,1.02006 -2.030587,1.131282 -0.826217,0.114399 -1.550746,-0.03813 -2.001988,-0.861173 -0.09215,0.06673 -0.165243,0.111222 -0.225621,0.168422 -0.476663,0.43853 -1.045482,0.68004 -1.687389,0.711817 -0.2987094,0.01271 -0.4067532,0.130289 -0.4258197,0.400398 -0.00953,0.12711 -0.044489,0.251043 -0.069911,0.374975 -0.4766638,2.29752 -2.1036759,3.829199 -4.4488615,4.115197 -0.6228406,0.07627 -1.2774588,0.07944 -1.8907661,-0.03496 C 1.4585998,28.442444 0.31778458,27.161807 0.07945271,25.255152 -0.13027933,23.590007 0.18431873,22.017016 1.0137136,20.55207 c 0.073088,-0.130288 0.1620657,-0.251043 0.2605762,-0.406753 0.301887,0.15571 0.578352,0.298709 0.854817,0.441708 -0.1811323,0.521153 -0.4003976,0.997816 -0.5147969,1.499902 -0.1143993,0.514797 -0.2033765,1.058194 -0.1684212,1.579346 0.1175771,1.773189 1.5062574,2.914004 3.3461794,2.780538 1.1980149,-0.0858 2.2307863,-0.562463 3.0697144,-1.433169 C 8.3861149,24.470275 8.5894915,23.844256 8.398826,23.091128 8.1477831,22.093312 7.7092525,21.181295 7.1595003,20.320123 7.03239,20.123102 7.0165012,19.967391 7.1467892,19.767193 c 0.2701095,-0.413109 0.5179746,-0.845284 0.7880841,-1.26157 0.197021,-0.301887 0.4480639,-0.292354 0.5942408,0.03178 0.3622644,0.810329 0.7181733,1.627012 1.0486602,2.450052 0.2796427,0.692751 0.6260187,0.848461 1.2997027,0.52433 0.45442,-0.216088 0.781729,-0.559285 0.988283,-1.016883 0.05084,-0.114399 0.111222,-0.235154 0.133466,-0.355909 0.120755,-0.724528 0.540219,-1.169415 1.245681,-1.350547 0.120755,-0.03178 0.336843,-0.07627 0.362265,-0.0286 0.07627,0.133466 0.12711,0.317776 0.104866,0.467131 -0.04767,0.298709 -0.158888,0.587885 -0.225621,0.886594 -0.05084,0.222443 -0.09215,0.448064 -0.111222,0.676863 -0.06355,0.714995 0.349554,1.032771 1.045483,0.823039 0.425819,-0.130288 0.699107,-0.435353 0.845283,-0.823039 0.187488,-0.49573 0.295532,-1.023238 0.476664,-1.525324 0.06991,-0.193843 0.216088,-0.384509 0.374976,-0.514797 0.212909,-0.174777 0.470308,-0.301887 0.718173,-0.428997 0.09851,-0.05084 0.295532,-0.09851 0.324131,-0.06038 0.0858,0.120755 0.165244,0.289176 0.146177,0.42582 -0.06356,0.438531 -0.193843,0.867528 -0.257398,1.309236 -0.136644,0.953328 0.193843,1.407747 1.143993,1.579346 0.298709,0.05402 0.606952,0.08262 0.908839,0.08262 15.087996,0.0032 30.175991,0.0032 45.26081,-0.0032 0.327309,0 0.660973,-0.04767 0.978749,-0.117577 0.727707,-0.165243 1.252037,-0.55293 1.356903,-1.350547 0.0095,-0.06356 0.04131,-0.123933 0.04449,-0.18431 0.0572,-0.956505 0.730884,-1.410925 1.474479,-1.8145 z"
     class="st0" /><path
     style="fill:#66cc00;stroke-width:0.317776"
     id="path1001"
     d="m 17.433193,12.976323 c 0.0286,-0.314598 0.07627,-0.629196 0.08262,-0.943794 0.0032,-0.152532 -0.01907,-0.381331 -0.114399,-0.441708 -0.117577,-0.07309 -0.343198,-0.0572 -0.486197,0.0032 -1.7859,0.788084 -3.562267,0.664151 -5.332278,-0.04449 C 10.257815,11.018824 9.7493732,9.9574531 9.6762848,8.6069059 9.6031963,7.278603 10.133882,6.1759209 10.861589,5.1113719 11.980159,3.4748264 13.52455,2.2895226 15.011741,1.0470191 15.809358,0.38286767 16.718197,0.2366908 17.658813,0.79279848 17.830412,0.89448674 18.0179,1.008886 18.129122,1.1677739 18.612141,1.8573475 18.844117,2.6200094 18.69794,3.4684709 18.65345,3.7354026 18.548586,3.9673789 18.249876,4.0150453 17.925745,4.0658894 17.636569,3.9832677 17.468148,3.6750252 17.360104,3.4748264 17.28066,3.2587388 17.178972,3.0553623 16.931107,2.5786986 16.65782,2.4356995 16.190689,2.6930979 15.583737,3.0299403 14.973608,3.401738 14.471522,3.8688684 c -1.023238,0.9501497 -1.99881,1.9606768 -2.704272,3.1841137 -0.219266,0.381331 -0.394042,0.7976173 -0.546575,1.2139037 -0.187487,0.5147968 0,0.9501497 0.473486,1.2266146 0.04449,0.025422 0.08898,0.050844 0.136644,0.066733 1.477657,0.4957306 2.968026,0.8961276 4.52195,0.3781532 0.36862,-0.1239326 0.711818,-0.3241314 1.055015,-0.5084413 0.108044,-0.0572 0.219266,-0.1588879 0.260577,-0.2669317 0.05402,-0.1429991 0.08898,-0.3336646 0.03178,-0.460775 -0.03496,-0.079444 -0.260576,-0.1271103 -0.384509,-0.104866 -0.737239,0.1271103 -1.471302,0.2828205 -2.208541,0.4194641 -0.260577,0.047666 -0.527508,0.092155 -0.791262,0.1112215 -0.600597,0.044489 -0.97875,-0.2764649 -1.04866,-0.8865945 -0.02224,-0.2001988 -0.0095,-0.406753 -0.0064,-0.6101296 0.01271,-0.486197 0.222443,-0.8389281 0.714996,-0.9501497 1.074082,-0.2415096 2.15452,-0.4734859 3.23178,-0.695929 0.470308,-0.09851 0.956505,-0.1334659 1.423635,-0.2478652 1.353725,-0.3368423 1.884411,0.3145981 2.090965,1.7032784 0.06673,0.4575972 -0.09216,0.9882828 -0.276465,1.433169 -0.533863,1.3028804 -0.73724,2.6597834 -0.762662,4.0516414 -0.0032,0.177955 0.0032,0.355909 0,0.533864 -0.01589,0.83575 -0.667329,1.223437 -1.474479,0.994638 -0.845284,-0.231976 -0.743596,-0.854817 -0.775373,-1.477658 z"
     class="st1" /><path
     style="fill:#000000;stroke-width:0.317776"
     id="path1003"
     d="m 100.69364,21.371961 c -0.10805,-0.06356 -0.23834,-0.108044 -0.32414,-0.193844 -1.042301,-1.02006 -1.31241,-2.383318 -0.708636,-3.708443 0.540216,-1.188482 1.321946,-2.160876 2.650246,-2.497718 1.26475,-0.320954 2.33248,0.101688 3.20318,1.035949 0.28282,0.305065 0.49256,0.676862 0.74042,1.013705 0.20656,0.279642 0.21291,0.521152 -0.0922,0.740417 -0.0794,0.0572 -0.12076,0.162066 -0.18431,0.254221 -0.13665,-0.09851 -0.21927,-0.152532 -0.29871,-0.21291 -1.17577,-0.931083 -2.46912,-0.988283 -3.81331,-0.473486 -0.84529,0.324131 -0.95651,0.759484 -0.47349,1.53168 0.74042,1.185303 2.04648,1.766833 3.39703,1.442702 0.91201,-0.219265 1.80178,-0.530686 2.70745,-0.784906 0.13664,-0.03813 0.37497,-0.03496 0.42899,0.04449 0.0763,0.111222 0.0699,0.327309 0.0191,0.470308 -0.1716,0.463953 -0.36227,0.924728 -0.58471,1.366436 -0.0794,0.158888 -0.25104,0.330487 -0.41311,0.384509 -0.91837,0.295532 -1.84627,0.559286 -2.77418,0.829395 -1.26793,0.371798 -2.5295,0.762662 -3.80695,1.099504 -1.156708,0.301887 -2.332478,0.349554 -3.52096,0.0572 -0.01589,0.04449 -0.04449,0.08898 -0.04767,0.133466 -0.09851,1.677856 -0.959683,2.971204 -2.116387,4.102486 -0.800795,0.781728 -1.754123,1.070904 -2.869516,0.832572 -1.029594,-0.219265 -1.982921,-0.613307 -2.94896,-1.140815 0.130288,-0.298709 0.254221,-0.584707 0.387687,-0.89295 0.130288,0.05084 0.231976,0.09215 0.336842,0.130288 0.803973,0.295532 1.620657,0.359087 2.421452,0.03496 1.534857,-0.622841 2.624828,-1.700101 3.241313,-3.250847 0.127111,-0.317776 0.06991,-0.565641 -0.111221,-0.848462 -0.435353,-0.670507 -0.845284,-1.36008 -1.229793,-2.059187 -0.08262,-0.146177 -0.07944,-0.39722 -0.01589,-0.559285 0.181132,-0.460775 0.400397,-0.908839 0.635551,-1.341014 0.06355,-0.117577 0.235154,-0.219266 0.371798,-0.24151 0.07309,-0.01271 0.203376,0.142999 0.263754,0.247865 0.34002,0.606952 0.629196,1.248859 1.013705,1.827211 0.428997,0.645085 1.089971,0.934261 1.871699,0.912017 0.711818,-0.01907 1.420458,-0.04449 2.132276,-0.07627 0.14617,-0.0064 0.28917,-0.05085 0.43217,-0.07944 0.0191,-0.04449 0.0509,-0.08898 0.0795,-0.130288 z"
     class="st0" /><path
     style="fill:#66cc00;stroke-width:0.317776"
     id="path1005"
     d="m 69.103541,10.662915 c 0,0.829395 -0.36862,1.258393 -1.137638,1.614302 -1.124926,0.521152 -2.233964,0.428997 -3.320757,-0.0032 -1.566635,-0.619663 -2.12592,-1.967032 -2.011521,-3.4828231 0.09215,-1.2393257 0.58153,-2.3515411 1.131282,-3.4478677 0.473486,-0.9501497 1.070905,-1.8430997 1.331481,-2.8981155 0.12711,-0.5179745 0.587885,-0.695929 1.064549,-0.8103283 1.356903,-0.3273091 2.710628,-0.65779594 4.06753,-0.9882828 0.257399,-0.0635552 0.514797,-0.14299911 0.772196,-0.20337652 0.562463,-0.12711033 0.93426,0.0508441 1.137637,0.58788522 0.168421,0.4448862 0.320954,0.9024834 0.428997,1.3664361 0.108044,0.4703082 -0.06991,0.7721952 -0.549752,0.8834168 -0.95015,0.222443 -1.916188,0.3749754 -2.869516,0.591063 -0.791261,0.1811322 -1.576168,0.3876865 -2.351541,0.6260183 -0.52433,0.158888 -0.667329,0.6609737 -0.829394,1.1153932 -0.02542,0.069911 0.0858,0.2510429 0.165243,0.2796427 0.187488,0.063555 0.400397,0.1080438 0.594241,0.079444 0.975572,-0.1429991 1.973388,-0.2001987 2.853627,-0.7277066 0.101688,-0.060377 0.36862,-0.00953 0.451241,0.082622 0.460775,0.5052636 0.622841,1.1344597 0.562463,1.7986112 -0.04449,0.5020858 -0.381331,0.7690175 -0.972394,0.8611724 -0.714995,0.1112216 -1.429991,0.2097321 -2.148164,0.3082426 -0.638729,0.0858 -1.280637,0.1715989 -1.922544,0.2415096 -0.517974,0.0572 -0.89295,0.2637539 -0.927905,0.5370412 -0.03496,0.2637539 0.390864,0.6673292 0.826217,0.800795 0.448064,0.1398212 0.877061,0.063555 1.302881,-0.09851 0.451241,-0.1715989 0.905661,-0.3304868 1.350547,-0.5147968 0.276465,-0.1143993 0.492553,-0.044489 0.61013,0.2001988 0.18431,0.3781532 0.327309,0.7753732 0.486197,1.1662372 -0.0286,0.0064 -0.06038,0.02224 -0.09533,0.03496 z"
     class="st1" /><path
     style="fill:#66cc00;stroke-width:0.317776"
     id="path1007"
     d="m 40.522784,5.4355032 c 0.270109,0.034955 0.505263,0.1207548 0.70864,0.076266 0.629196,-0.1398214 1.258392,-0.2923537 1.858988,-0.5179746 0.505264,-0.1906655 0.959683,-0.1461769 1.198015,0.3368424 0.21291,0.4385306 0.349553,0.9183721 0.463953,1.3950358 0.06991,0.2955316 -0.0858,0.5561077 -0.378153,0.6768625 -0.374976,0.1525324 -0.753129,0.3241314 -1.147171,0.4067531 -1.026416,0.2129098 -2.062365,0.381331 -3.095137,0.5688187 -0.187487,0.034955 -0.394042,0.038133 -0.55293,0.1239326 -0.139821,0.076266 -0.292353,0.2383318 -0.314598,0.381331 -0.01589,0.1080437 0.139822,0.3082425 0.263754,0.3590866 0.940617,0.4003976 1.884411,0.4194641 2.758294,-0.1588879 0.282821,-0.1874877 0.438531,-0.1652434 0.632374,0.069911 0.55293,0.670507 0.711818,1.4236356 0.457597,2.2466746 -0.123932,0.403576 -0.428997,0.641908 -0.832572,0.769018 -1.309237,0.406753 -2.561273,0.174777 -3.787888,-0.320954 -0.12711,-0.05084 -0.266932,-0.12711 -0.343198,-0.231976 C 37.697757,10.602538 37.02725,9.5888332 37.313248,8.2255749 37.586535,6.9163385 37.894778,5.6325242 38.482663,4.4154428 38.692395,3.98009 38.679684,3.42716 38.72735,2.9250742 38.76866,2.4897214 38.975215,2.245034 39.385146,2.0956793 c 1.566635,-0.5783519 3.215891,-0.800795 4.839726,-1.1217486 0.597418,-0.11757705 1.13446,0.0699107 1.41728,0.6991068 0.187488,0.4194641 0.52433,0.7785508 0.381331,1.3124141 -0.07627,0.2828205 -0.21291,0.4003976 -0.489375,0.4321752 -0.981927,0.117577 -1.963854,0.2446873 -2.945782,0.3813309 -0.22562,0.031778 -0.441708,0.1271104 -0.667329,0.1620657 -0.797617,0.1239326 -1.102682,0.7213511 -1.398213,1.4744798 z"
     class="st1" /><path
     style="fill:#66cc00;stroke-width:0.317776"
     id="path1009"
     d="M 33.464983,12.410682 C 32.3909,12.429749 31.469351,11.949908 30.579578,11.444644 30.067959,11.15229 29.902716,10.542161 29.731117,9.9955862 29.441941,9.0740364 29.581762,8.1620197 29.842338,7.2595364 29.950382,6.8813832 30.074315,6.5064077 30.220492,6.1409655 30.280869,5.9884331 30.401624,5.8517895 30.522379,5.7373902 30.732111,5.543547 30.757533,5.1431495 30.516023,5.0541722 29.775605,4.7872405 29.762894,4.1453334 29.753361,3.5479148 29.74065,2.7788974 30.071137,2.4515883 30.821088,2.245034 c 1.194837,-0.3273091 2.380141,-0.6895736 3.578156,-1.0137049 0.537041,-0.1461769 1.089971,-0.24150961 1.639723,-0.34002011 0.587885,-0.10486602 0.985105,0.10804377 1.229792,0.65461821 0.15571,0.3463756 0.305065,0.6991068 0.428998,1.0581935 0.193843,0.5529299 0.01589,0.8452836 -0.55293,0.9692162 -1.042305,0.2256208 -2.08461,0.4353529 -3.120559,0.683218 -0.365442,0.088977 -0.724529,0.2383319 -1.064549,0.4067531 -0.15571,0.076266 -0.31142,0.2383318 -0.371798,0.3972197 -0.06356,0.1684212 -0.07309,0.4099309 0.0064,0.5624632 0.04449,0.0858 0.320953,0.1048661 0.476664,0.073089 0.619662,-0.1271103 1.23297,-0.2923538 1.852633,-0.4289974 0.73724,-0.1588879 1.115393,0.00318 1.391858,0.7054623 0.168421,0.4258196 0.241509,0.8993056 0.298709,1.3569028 0.01589,0.1271103 -0.158888,0.3717977 -0.285998,0.406753 -0.448064,0.1207549 -0.915195,0.1779545 -1.379147,0.2510429 -0.95015,0.1557102 -1.9003,0.3018871 -2.847272,0.460775 -0.257398,0.041311 -0.451241,0.2256208 -0.394042,0.4703082 0.03813,0.1620657 0.244688,0.3050648 0.403576,0.4194641 0.676862,0.4925525 1.369613,0.394042 2.075076,0.047666 0.260576,-0.1271104 0.505263,-0.054022 0.667329,0.1906654 0.158888,0.2415097 0.34002,0.4830188 0.438531,0.7531288 0.381331,1.045482 -0.216088,1.967032 -1.325126,2.071898 -0.168421,0.02224 -0.336842,0.0095 -0.502085,0.0095 z"
     class="st1" /><path
     style="fill:#000000;stroke-width:0.317776"
     id="path1011"
     d="m 73.256871,25.935221 c 0.65144,0.597419 1.245681,1.128105 1.820855,1.681034 0.07309,0.06991 0.09216,0.301887 0.03178,0.378154 -0.394042,0.52433 -0.816684,1.026416 -1.252037,1.563457 -0.718173,-0.626019 -1.366436,-1.185304 -2.056009,-1.7859 0.473486,-0.594241 0.93426,-1.178949 1.455413,-1.836745 z"
     class="st0" /><path
     style="fill:#000000;stroke-width:0.317776"
     id="path1013"
     d="m 79.409011,13.090723 c 0.657796,0.603774 1.274281,1.163059 1.874877,1.738233 0.05084,0.04767 0.04767,0.228799 -0.0032,0.295532 -0.406753,0.527508 -0.829395,1.042305 -1.271103,1.592057 -0.727707,-0.629196 -1.372792,-1.188482 -2.059187,-1.7859 0.476663,-0.600597 0.934261,-1.182126 1.458591,-1.839922 z"
     class="st0" /><path
     style="fill:#000000;stroke-width:0.317776"
     id="path1015"
     d="m 101.58341,10.313362 c 0.65779,0.603774 1.25839,1.147171 1.8431,1.703278 0.0604,0.0572 0.0922,0.225621 0.0508,0.292354 -0.35591,0.603774 -0.79126,1.140815 -1.36961,1.566635 -0.6578,-0.571996 -1.29653,-1.128104 -1.97975,-1.719167 0.47031,-0.597419 0.92791,-1.178948 1.45542,-1.8431 z"
     class="st0" /><path
     style="fill:#66cc00;stroke-width:0.317776"
     id="path1017"
     d="M 98.87278,1.285351 C 98.529582,0.83410934 98.07834,0.65933264 97.49681,0.78326521 96.397306,1.0152416 95.329579,1.377506 94.191942,1.4633055 c -1.198015,0.092155 -2.383319,0.3368423 -3.578156,0.4830192 -1.328303,0.1620657 -1.897122,0.7817285 -1.928899,2.1322758 -0.0032,0.209732 -0.06356,0.4258196 -0.142999,0.6228406 -0.498908,1.2329701 -1.089971,2.4373405 -1.093149,3.8164876 0,0.1302881 -0.108044,0.2796427 -0.206554,0.3749754 -0.0286,0.0286 -0.228799,-0.073088 -0.308243,-0.1557101 C 86.69561,8.4988621 86.473167,8.4829733 86.196702,8.6831721 85.983792,8.8388822 85.748638,8.9914146 85.500773,9.0708586 85.144864,9.1852579 84.757178,9.3219015 84.398091,9.2901239 83.352609,9.1979689 82.408814,8.7943936 81.563531,8.1683753 80.715069,7.5391791 80.610203,7.0466266 81.128178,6.121899 c 0.05084,-0.088977 0.09851,-0.1779545 0.158888,-0.2605762 0.718173,-0.9914605 1.566635,-1.8081444 2.837738,-2.0210542 0.498908,-0.082622 0.695929,0.1493546 0.549752,0.6355516 -0.01907,0.060377 -0.04767,0.1175771 -0.06355,0.1779545 -0.187488,0.6323739 0.0286,1.2329702 0.52433,1.471302 0.829395,0.3972198 1.293348,0.3082426 1.763656,-0.3431978 C 87.556783,4.87304 87.455094,3.1316285 86.705144,2.245034 86.400079,1.8827695 86.04417,1.7111706 85.554795,1.6889263 84.28687,1.6317266 83.104744,1.9272582 81.992528,2.4992546 80.81358,3.1062065 79.755386,3.8625129 79.151612,5.1081941 79.091235,5.2321267 79.014969,5.359237 78.91328,5.4482142 78.81477,5.530836 78.674949,5.5626135 78.554194,5.6198132 78.509705,5.5085917 78.436617,5.4005479 78.420728,5.2829708 78.353995,4.8317292 78.328573,4.374132 78.249129,3.9260681 78.067997,2.8901189 77.759754,1.8986583 77.032048,1.0946855 76.517251,0.52904455 76.069187,0.46231163 75.538501,1.0120638 74.995105,1.5713492 74.499374,2.1941898 74.076732,2.848808 73.644557,3.519315 73.336315,4.2660882 72.954984,4.9715505 72.738896,5.371948 72.545053,5.8073009 72.239988,6.1314323 71.947634,6.4428526 71.766502,6.7733394 71.639392,7.1642037 71.34386,8.0698648 71.067395,8.9755258 70.476332,9.7572544 70.16809,10.164007 70.187156,10.662915 70.317445,11.149112 c 0.114399,0.428998 0.664151,0.931084 1.121748,0.934261 0.406753,0.0032 0.540219,-0.374975 0.718174,-0.657796 0.12711,-0.203376 0.212909,-0.432175 0.317775,-0.648262 0.18431,-0.378153 0.359087,-0.756307 0.556108,-1.1281044 0.06355,-0.1175771 0.162066,-0.2542207 0.276465,-0.2987093 0.800795,-0.314598 1.633368,-0.4544194 2.497718,-0.394042 0.320953,0.022244 0.457597,0.2001988 0.460775,0.5306856 0.0032,0.4830193 0.03178,0.9660381 0.07944,1.4427021 0.04449,0.476664 0.18431,0.92155 0.591063,1.23297 0.444886,0.34002 1.029593,0.209732 1.267925,-0.289176 0.247865,-0.514797 0.225621,-1.055015 0.177955,-1.604768 -0.03178,-0.3781528 -0.06038,-0.7626615 -0.02542,-1.1408148 0.02224,-0.2160875 0.171599,-0.4226418 0.263754,-0.6323738 0.158888,0.1334658 0.317776,0.2637539 0.470308,0.3972197 0.03813,0.031778 0.06356,0.079444 0.09533,0.1175771 1.353725,1.8526328 3.228602,2.8663378 5.437144,3.2921578 1.131282,0.219265 1.763656,-0.133466 2.316586,-1.147171 0.104866,-0.190666 0.200198,-0.384509 0.31142,-0.568819 0.231976,-0.387686 0.352731,-0.384508 0.626018,-0.01271 0.912017,1.23297 2.227609,1.477658 3.629,1.410925 0.587885,-0.0286 1.169415,-0.225621 1.747767,-0.365442 C 94.37943,11.352489 94.779827,9.986053 93.979032,9.1503025 93.778833,8.9437483 93.782011,8.8134602 94.058476,8.7085942 94.188764,8.6609278 94.319052,8.6037281 94.44934,8.5624173 94.808427,8.4416625 95.00227,8.1969751 95.08807,7.8283551 95.304157,6.909983 94.995915,6.1790986 94.315874,5.5848578 94.211008,5.4927029 94.020343,5.438681 93.880522,5.4545698 c -0.689574,0.076266 -1.37597,0.1843099 -2.065543,0.2796427 -0.0032,-0.025422 -0.0064,-0.050844 -0.0095,-0.073088 -0.25422,0 -0.508441,-0.00953 -0.762662,0.00318 -0.285998,0.012711 -0.38133,-0.1429991 -0.384508,-0.3972198 -0.0095,-0.5084413 0.305065,-0.9120166 0.934261,-1.0391269 0.89295,-0.1811322 1.798611,-0.3336646 2.70745,-0.4258196 0.959683,-0.09851 1.928899,-0.069911 2.885404,-0.1747767 0.594241,-0.066733 1.169415,-0.1938433 1.7573,0.034955 0.251043,0.09851 0.346376,-0.079444 0.384509,-0.289176 C 99.473376,2.6136539 99.343088,1.9050139 98.87278,1.285351 Z M 76.412385,4.8476179 c 0,0.038133 0,0.076266 0,0.1143993 -0.03813,1.0327715 -0.177955,1.1281042 -1.296526,1.0931489 -0.187487,-0.00636 -0.31142,-0.1016883 -0.22562,-0.289176 0.289176,-0.6450849 0.584707,-1.2869921 0.908838,-1.9130105 0.104866,-0.2001987 0.435353,-0.1016882 0.517975,0.171599 0.07944,0.2605761 0.08898,0.5433966 0.130288,0.8166838 -0.01271,0.00318 -0.02542,0.00636 -0.03495,0.00636 z m 16.572009,3.8419097 c 0.104866,0.00318 0.209732,0.047666 0.314598,0.076266 0.0064,0.041311 0.0095,0.085799 0.01589,0.1271103 -0.305065,0.2573984 -0.641908,0.4321751 -1.067727,0.4512417 -0.31142,0.015889 -0.626019,0.047666 -0.934261,0.1143993 -0.549752,0.117577 -1.055016,-0.031778 -1.550746,-0.2351541 -0.222443,-0.088977 -0.231976,-0.3431979 -0.01271,-0.4703082 0.146177,-0.0858 0.333665,-0.1334659 0.502086,-0.1334659 0.912016,0.00953 1.820855,0.038133 2.732872,0.069911 z"
     class="st1" /><path
     style="fill:#66cc00;stroke-width:0.317776"
     id="path1019"
     d="M 63.529753,2.6740313 C 63.135711,1.6094823 62.477915,0.88813123 61.276722,0.81186503 60.771459,0.78008745 60.263018,0.74513211 59.757754,0.7228878 59.077714,0.694288 58.397673,0.6720437 57.717633,0.6529771 57.641363,0.6497991 57.542857,0.6370883 57.49519,0.6783992 c -0.448064,0.3717977 -0.959683,0.3527311 -1.487191,0.27646496 -0.04767,-0.006356 -0.101688,0 -0.152532,0.012711 C 55.172249,1.1614184 54.469964,1.3107731 53.932923,1.8319254 53.754969,2.0067021 53.662814,2.0098799 53.52617,1.7429482 53.376816,1.4537722 53.141661,1.1677739 52.871552,0.98981949 52.3504,0.64979936 51.899158,0.89448674 51.861025,1.5109718 51.787936,2.6104762 51.746626,3.716336 51.676715,4.8158404 51.644937,5.3083929 51.58456,5.8009454 51.514649,6.2903202 51.466983,6.6144515 51.330339,6.6525846 51.085652,6.436497 50.999852,6.3602308 50.926764,6.2712536 50.860031,6.1790986 50.459634,5.6388797 50.030636,5.1145496 49.677905,4.5425532 49.45864,4.1866442 49.299752,3.7671802 49.213952,3.3540716 49.121797,2.9250742 49.150397,2.4706548 49.11862,2.0289464 49.058242,1.1614184 48.873932,0.93897536 48.04136,0.71971004 47.291409,0.52268903 46.59548,1.0311303 46.589124,1.8223921 c -0.0032,0.6419072 0.111222,1.2901699 0.06991,1.9288993 -0.07944,1.2139036 -0.200199,2.4246295 -0.36862,3.6289998 -0.130288,0.9406165 -0.359087,1.8653441 -0.543397,2.7964268 0.02542,0.0032 0.05084,0.0095 0.07627,0.01271 0,0.177955 -0.01271,0.355909 0.0032,0.533864 0.06356,0.673685 0.600596,1.150348 1.280637,1.169415 0.343197,0.0095 0.571996,-0.139821 0.660973,-0.45442 0.09533,-0.34002 0.139822,-0.692751 0.21291,-1.039126 0.18431,-0.8802395 0.365442,-1.7604785 0.571997,-2.6375398 0.03495,-0.1525324 0.193843,-0.2764649 0.295531,-0.4131086 0.139821,0.1175771 0.292354,0.2192654 0.413109,0.3527312 0.08262,0.088977 0.120754,0.2224431 0.18431,0.3304869 0.247865,0.4289973 0.454419,0.8897723 0.759484,1.274281 0.460775,0.5815298 0.664151,1.2425033 0.819861,1.9416103 0.06673,0.292354 0.18431,0.58153 0.324132,0.848461 0.28282,0.543397 0.800795,0.495731 1.302881,0.467131 0.416286,-0.02542 0.670507,-0.295532 0.740417,-0.660974 0.108044,-0.540219 0.168422,-1.099504 0.181133,-1.649256 0.0095,-0.4607753 -0.123933,-0.9279058 -0.111222,-1.3886807 0.02224,-0.8230394 0.146177,-1.642901 0.152532,-2.4659404 0.0064,-0.8039728 0.152533,-1.6174789 -0.08262,-2.4214517 -0.09215,-0.3114203 0.193843,-0.5497522 0.428997,-0.3908643 0.568819,0.3876865 1.074082,0.18431 1.617479,-0.050844 0.333665,-0.1429991 0.695929,-0.2224431 1.051838,-0.2987093 0.24151,-0.050844 0.448064,0.054022 0.444886,0.3336646 -0.0032,0.3527312 -0.04449,0.7086401 -0.08262,1.0613713 -0.0286,0.2573984 -0.187487,0.3845087 -0.43853,0.4607749 -0.209732,0.060377 -0.441709,0.1525324 -0.591063,0.3050648 -0.619663,0.6196629 -0.597419,1.63019 0.02224,2.2466751 0.136644,0.1334658 0.263754,0.2796427 0.413109,0.394042 0.279642,0.2160875 0.374975,0.5020858 0.355909,0.8357504 -0.01589,0.3050648 -0.05085,0.6069518 -0.07627,0.9088388 -0.06356,0.6927515 -0.216087,1.3855025 0.07627,2.0655425 0.206554,0.479842 0.772195,0.800795 1.264747,0.714996 0.381331,-0.06673 0.61013,-0.422642 0.645085,-1.004172 0.0064,-0.12711 -0.0032,-0.25422 0.0064,-0.381331 0.06991,-0.908839 0.142999,-1.8176773 0.216087,-2.7265162 0.05084,-0.6005963 0.289176,-1.0264159 0.953328,-1.1344596 0.320953,-0.050844 0.629196,-0.2001988 0.940616,-0.3082426 0.819862,-0.2828205 1.518969,-0.7372399 2.132276,-1.3569027 0.870706,-0.8770613 1.032771,-1.8526331 0.616485,-2.9775595 z m -2.357897,1.3028809 c -0.49573,0.3527312 -1.070904,0.6005963 -1.633367,0.8421059 -0.244688,0.104866 -0.473486,-0.041311 -0.537041,-0.3336646 -0.08262,-0.381331 -0.152533,-0.7658397 -0.228799,-1.1503485 -0.0095,-0.2764649 0.139821,-0.4448861 0.384509,-0.4258196 0.603774,0.041311 1.210726,0.082622 1.801789,0.2065543 0.546574,0.1143993 0.660973,0.5433967 0.212909,0.8611725 z"
     class="st1" /><path
     style="fill:#66cc00;stroke-width:0.317776"
     id="path1021"
     d="M 28.574413,9.2265687 C 28.218504,8.9850591 27.840351,8.7721493 27.481264,8.5338175 26.616914,7.961821 26.626447,7.9077991 27.182555,7.0593377 28.42188,5.1812826 28.345614,3.4780042 27.026845,1.6952818 26.572425,1.0819745 25.987718,0.59259972 25.164678,0.57353317 24.684837,0.56082213 24.19864,0.58306644 23.725154,0.65615488 22.269741,0.87859795 21.6755,2.4261662 22.571628,3.5924035 c 0.09533,0.1239325 0.149354,0.3336646 0.123932,0.4893747 -0.08262,0.473486 -0.21291,0.9406164 -0.320953,1.4077469 -0.07309,0.3177758 -0.27011,0.4766637 -0.587886,0.5719965 -0.190665,0.0572 -0.419464,0.2319763 -0.486197,0.406753 -0.206554,0.5592855 -0.171599,1.1122154 0.21291,1.617479 0.117577,0.1588879 0.21291,0.3876865 0.203377,0.5815297 -0.0286,0.6069518 -0.111222,1.2107259 -0.171599,1.8176777 0.0095,0 0.01907,0 0.03178,0.0032 0,0.203376 -0.01589,0.406753 0.0032,0.610129 0.09216,0.943795 0.606952,1.423636 1.461769,1.407747 0.378153,-0.0095 0.540219,-0.200199 0.537041,-0.540219 -0.0032,-0.508441 -0.04131,-1.013705 -0.04767,-1.522146 -0.0032,-0.327309 -0.01589,-0.6641513 0.05084,-0.9787494 0.104866,-0.4830192 0.314598,-0.5275079 0.727706,-0.2478651 1.00735,0.6768625 1.916188,1.4617685 2.67885,2.4119185 0.311421,0.384509 0.85164,0.543397 1.267926,0.320954 0.260576,-0.139822 0.460775,-0.419465 0.648263,-0.66733 0.578352,-0.762662 0.448064,-1.5285014 -0.330487,-2.0560093 z M 25.978184,4.4758202 c -0.200198,0.5878853 -0.613307,0.9819273 -1.198014,1.1948371 -0.273288,0.09851 -0.378154,0.00953 -0.330487,-0.2859982 0.0858,-0.5624632 0.15571,-1.1281042 0.231976,-1.6937451 -0.0095,0 -0.02224,-0.00318 -0.03178,-0.00318 0,-0.012711 -0.0032,-0.025422 0,-0.038133 0.0572,-0.2192653 0.111222,-0.6196628 0.177955,-0.6228406 0.285998,-0.00953 0.610129,0.034955 0.851639,0.1779545 0.378153,0.2256208 0.476664,0.7499509 0.298709,1.2711032 z"
     class="st1" /></g>
</svg>
